<?xml version="1.0" encoding="utf-8"?>
<!-- Generator: Adobe Illustrator 23.0.3, SVG Export Plug-In . SVG Version: 6.00 Build 0)  -->
<svg version="1.1" id="Layer_1" xmlns="http://www.w3.org/2000/svg" xmlns:xlink="http://www.w3.org/1999/xlink" x="0px" y="0px"
	 viewBox="0 0 832.6 184.6" style="enable-background:new 0 0 832.6 184.6;" xml:space="preserve">
<style type="text/css">
	.st0{fill:#F68921;}
	.st1{fill:#1E4B7F;}
	.st2{fill:#2081C4;}
</style>
<g>
	<g>
		<g>
			<path class="st0" d="M249.6,65.9c5.5,4.7,8.2,11.8,8.2,21.5c0,9.7-2.8,16.7-8.4,21.2c-5.6,4.5-14.2,6.7-25.8,6.7h-10.4v21.8
				h-17.4V58.9h27.6C235.4,58.9,244.1,61.3,249.6,65.9z M236.8,96.7c2.1-2.3,3.1-5.8,3.1-10.3s-1.4-7.7-4.1-9.6
				c-2.7-1.9-7-2.9-12.7-2.9h-10v26.3h11.7C230.7,100.2,234.7,99,236.8,96.7z"/>
			<path class="st0" d="M296.9,91.7c-5,0-8.7,1.8-11.2,5.3c-2.5,3.5-3.7,8.2-3.7,14v26.1h-16.8V76.9h16.8v7.9
				c2.2-2.5,4.9-4.5,8.1-6.3c3.2-1.7,6.5-2.6,9.9-2.7l0.1,15.8H296.9z"/>
			<path class="st0" d="M358.9,128.4c-6.8,6.4-14.7,9.6-23.9,9.6c-9.1,0-16.7-2.8-22.6-8.4c-6-5.6-8.9-13.2-8.9-22.6
				c0-9.5,3-17,9.1-22.6c6.1-5.6,13.3-8.4,21.5-8.4c8.3,0,15.3,2.5,21.1,7.5c5.8,5,8.7,11.9,8.7,20.6v8.9H320c0.5,3.3,2.2,6,5.1,8.1
				c2.9,2.1,6.2,3.1,9.8,3.1c5.9,0,10.7-2,14.5-5.9L358.9,128.4z M342.8,92.7c-2.3-1.9-5.1-2.9-8.4-2.9c-3.3,0-6.4,1-9.1,3
				c-2.8,2-4.4,4.7-4.8,8.2h26.4C346.4,97.4,345.1,94.6,342.8,92.7z"/>
			<path class="st1" d="M429.5,58.9v15.5h-38.9v16.1h35v14.9h-35v16.2h40.1v15.4h-57.6V58.9H429.5z"/>
			<path class="st1" d="M495.3,104.7v32.4h-16.9v-32.9c0-4.8-0.7-8.3-2.2-10.5c-1.5-2.2-3.8-3.4-7-3.4c-3.2,0-6.1,1.2-8.6,3.6
				c-2.5,2.4-3.7,6-3.7,10.7v32.4h-16.8V76.9h16.8v6.8c4.6-5.2,9.9-7.8,15.9-7.8c3.8,0,7.3,1.1,10.3,3.4c3.1,2.2,5.4,5,7,8.2
				c2.3-3.7,5.4-6.5,9.3-8.5c3.9-2,7.8-3,11.8-3c7.1,0,12.8,2.1,17.1,6.3c4.3,4.2,6.5,10.3,6.5,18.3v36.6h-16.9v-32.9
				c0-9.2-3.4-13.9-10.2-13.9c-3.4,0-6.3,1.2-8.7,3.6C496.5,96.4,495.3,100,495.3,104.7z"/>
			<path class="st1" d="M580.5,75.9c7,0,13.3,2.9,18.7,8.8c5.5,5.9,8.2,13.2,8.2,22.1c0,8.9-2.7,16.3-8.2,22.3
				c-5.5,6-11.9,8.9-19.2,8.9c-7.3,0-13.2-2.9-17.7-8.8v27.2h-16.8V76.9h16.8v6.7C567.4,78.5,573.5,75.9,580.5,75.9z M562.1,107.1
				c0,4.9,1.4,8.9,4.1,12c2.7,3.1,6,4.6,9.9,4.6c3.9,0,7.3-1.5,10.2-4.6c2.9-3.1,4.4-7.1,4.4-11.9s-1.4-8.9-4.3-12.2
				c-2.8-3.3-6.2-4.9-10.2-4.9c-4,0-7.3,1.6-10,4.9C563.4,98.1,562.1,102.2,562.1,107.1z"/>
			<path class="st1" d="M634.5,89V116c0,2.3,0.6,4.1,1.8,5.4c1.2,1.3,2.6,2,4.3,2c3.1,0,5.8-1.4,7.9-4.3l6.3,11.7
				c-5.2,4.8-10.7,7.2-16.5,7.2c-5.8,0-10.7-1.9-14.7-5.7c-4-3.8-6-9-6-15.5V89h-7V76.9h7v-18h16.9v18h14.5V89H634.5z"/>
			<path class="st1" d="M660.7,69.3c-1.9-1.9-2.9-4.2-2.9-7c0-2.8,1-5.1,2.9-7s4.2-2.9,7-2.9c2.8,0,5.1,1,7,2.9
				c1.9,1.9,2.9,4.2,2.9,7c0,2.8-1,5.1-2.9,7c-1.9,1.9-4.2,2.9-7,2.9C664.9,72.1,662.6,71.2,660.7,69.3z M676,137.1h-16.8V76.9H676
				V137.1z"/>
			<path class="st1" d="M703.7,137.1l-23.8-60.3h17.4l15,37.9l15-37.9h17.4l-23.8,60.3H703.7z"/>
			<path class="st1" d="M800.6,128.4c-6.8,6.4-14.7,9.6-23.9,9.6c-9.1,0-16.7-2.8-22.6-8.4c-6-5.6-8.9-13.2-8.9-22.6
				c0-9.5,3-17,9.1-22.6c6.1-5.6,13.3-8.4,21.5-8.4c8.3,0,15.3,2.5,21.1,7.5c5.8,5,8.7,11.9,8.7,20.6v8.9h-43.8
				c0.5,3.3,2.2,6,5.1,8.1c2.9,2.1,6.2,3.1,9.8,3.1c5.9,0,10.7-2,14.5-5.9L800.6,128.4z M784.5,92.7c-2.3-1.9-5.1-2.9-8.4-2.9
				c-3.3,0-6.4,1-9.1,3c-2.8,2-4.4,4.7-4.8,8.2h26.4C788.2,97.4,786.8,94.6,784.5,92.7z"/>
		</g>
	</g>
	<g>
		<path class="st1" d="M157.9,41c-0.1-0.4-0.3-0.8-0.7-1.1c-18.2-11.4-39.7-18-62.8-18s-44.6,6.6-62.8,18c-0.4,0.2-0.6,0.6-0.7,1.1
			c-0.9,6-1.4,12.2-1.4,18.4c0,45.9,26.1,85.6,64.2,105.3c0.4,0.2,1,0.2,1.4,0c38.1-19.7,64.2-59.4,64.2-105.3
			C159.3,53.1,158.8,47,157.9,41z"/>
		<g>
			<g>
				<g>
					<path class="st0" d="M137.5,107.5c-0.8-0.7-2.1-1.8-2.9-2.4L94.5,74.4c-0.1,0-0.1,0-0.1,0.1v21.5c0,1,0,1.9,0,1.9s0,0.1,0,0.1
						c0,0,0.7,0.5,1.5,1.2l31.2,23.8c1.1,0.9,2.8,0.6,3.6-0.6c2.8-4,5.2-7.8,7.4-12.2C138.8,108.7,137.5,107.5,137.5,107.5z"/>
				</g>
				<g>
					<path class="st2" d="M94.4,74.4C94.4,74.4,94.4,74.3,94.4,74.4c0-0.1-0.7-0.6-1.5-1.2L53,42.7c-0.8-0.6-2.3-0.8-3.2-0.3
						l-7.9,4.2c-0.9,0.5-1.8,1.8-1.9,2.8l-0.5,4.7c-0.1,1,0.5,2.4,1.4,3l53.4,40.8c0.1,0,0.1,0,0.1-0.1V76.3
						C94.4,75.3,94.4,74.4,94.4,74.4z"/>
				</g>
			</g>
			<g>
				<g>
					<path class="st0" d="M113,138.8l-18.5-14.1c0,0-0.1,0-0.1,0.1v21.5c0,1,0,1.9,0,1.9s0,0.1,0,0.1s0.7,0.5,1.5,1.2l2.1,1.6
						c0.6,0.5,1.5,0.5,2.1,0.1c4.6-2.8,8.9-6,12.9-9.4C114,141,113.9,139.6,113,138.8z"/>
				</g>
				<g>
					<path class="st2" d="M94.4,124.7C94.4,124.7,94.4,124.7,94.4,124.7c0-0.1-0.7-0.6-1.5-1.2L47.3,88.7c-0.8-0.6-2.4-1.1-3.4-1
						c0,0-1.6,0.1-1.1,1.9c2.8,10.3,7,20,12.7,28.9c0.1,0.2,0.1,0.2,0.1,0.2c0.2,0.2,1,0.8,1.8,1.5l35.4,27c0.8,0.6,1.5,1.2,1.6,1.2
						c0,0,0.1-0.9,0.1-2v-19.6C94.4,125.6,94.4,124.8,94.4,124.7z"/>
				</g>
			</g>
			<g>
				<g>
					<path class="st0" d="M148.5,65.3l-41.7-31.8c-0.3-0.2-0.6-0.3-1-0.4c-3.8-0.4-9.6-0.6-9.6-0.6c-1,0-1.9,0-1.9,0
						c0,0,0,0.9,0,1.9v11.2c0,1,0,1.9,0,1.9c0,0,0,0.1,0,0.1c0,0,0.7,0.5,1.5,1.2l46.8,35.7c0.8,0.6,2.4,1.2,3.4,1.3
						c0,0,0.8,0.1,1.1-1.3c1.2-5.6,2-11.3,2.2-17.1C149.5,66.6,149.1,65.8,148.5,65.3z"/>
				</g>
				<g>
					<path class="st2" d="M94.3,32.4c-6,0-15.9,1.3-15.9,1.3c-1,0.1-1.2,0.8-0.4,1.4l14.8,11.3c0.8,0.6,1.5,1.2,1.6,1.2
						c0,0,0.1-0.9,0.1-2V34.4C94.4,33.3,94.4,32.5,94.3,32.4C94.4,32.4,94.4,32.4,94.3,32.4z"/>
				</g>
			</g>
		</g>
	</g>
</g>
</svg>
